# xmcd
# 
# Track frame offsets:
#     150
#     18093
#     32417
#     48766
#     65470
#     88990
#     107970
#     127439
#     147158
#     164189
#     179482
#     194449
# 
# Disc length: 2795
# 
# Revision: 0
# Processed by: cddbd v1.5.2PL0 Copyright (c) Steve Scherf et al.
# Submitted via: fre:ac v1.0.17
# 
DISCID=b10ae90c
DTITLE=calcinha preta - mágica
DYEAR=2004
DGENRE=forro
TTITLE0=manchete dos jornais
TTITLE1=a calcinha preta e nossa
TTITLE2=renascera
TTITLE3=perdoar
TTITLE4=o navio e o mar
TTITLE5=ainda te amo
TTITLE6=magica
TTITLE7=sai solidão
TTITLE8=segredo
TTITLE9=so tenho olhos pra voce
TTITLE10=abra o meu coraçao
TTITLE11=declaraçao de amor
EXTD=YEAR: 2004
EXTT0=
EXTT1=
EXTT2=
EXTT3=
EXTT4=
EXTT5=
EXTT6=
EXTT7=
EXTT8=
EXTT9=
EXTT10=
EXTT11=
PLAYORDER=
